<svg width="56" height="56" viewBox="0 0 56 56" fill="none" xmlns="http://www.w3.org/2000/svg">
<rect width="56" height="56" fill="#E4E4E7"/>
<g clip-path="url(#clip0_28_11891)">
<path d="M58 -2H-2V58H58V-2Z" fill="#0E0E0E"/>
<path d="M14.08 28.34V31.3C14.08 33.92 12.72 35.36 10.76 35.36C9.78 35.36 8.86 34.86 8.34 34.14L8.18 35.12H7V20.64H8.54V25.34C9.1 24.7 9.92 24.34 10.76 24.34C12.8 24.32 14.08 25.74 14.08 28.34ZM12.48 28.34C12.48 26.58 11.8 25.82 10.48 25.82C9.28 25.82 8.54 26.82 8.54 28.34V31.32C8.54 33.06 9.38 33.88 10.48 33.88C11.74 33.88 12.48 33.1 12.48 31.3V28.34Z" fill="white"/>
<path d="M16.04 31.46V28.24C16.04 25.72 17.46 24.34 19.66 24.34C21.86 24.34 23.26 25.72 23.26 28.24V31.46C23.26 33.98 21.86 35.36 19.66 35.36C17.46 35.36 16.04 33.98 16.04 31.46ZM21.68 31.46V28.24C21.68 26.6 20.92 25.88 19.66 25.88C18.4 25.88 17.64 26.6 17.64 28.24V31.46C17.64 33.1 18.4 33.84 19.66 33.84C20.92 33.84 21.68 33.1 21.68 31.46Z" fill="white"/>
<path d="M25.52 20.62H27.08V35.1H25.52V20.62Z" fill="white"/>
<path d="M28.8 31.94H30.36C30.38 33.1 31.08 33.88 32.42 33.88C33.56 33.88 34.24 33.3 34.24 32.34C34.24 30 28.94 30.82 28.94 27.24C28.94 25.48 30.24 24.34 32.24 24.34C34.34 24.34 35.58 25.68 35.62 27.64H34.08C34.06 26.5 33.42 25.8 32.24 25.8C31.16 25.8 30.52 26.36 30.52 27.26C30.52 29.48 35.82 28.62 35.82 32.36C35.82 34.16 34.5 35.38 32.44 35.38C30.18 35.38 28.82 33.92 28.8 31.94Z" fill="white"/>
<path d="M42.1 33.76V35.24H41.44C39.42 35.24 38.28 33.96 38.28 31.86V26.04H36.72V24.6H38.28V22.14H39.84V24.6H41.88V26.04H39.84V31.86C39.84 33.12 40.34 33.76 41.48 33.76H42.1Z" fill="white"/>
<path d="M49 24.48V26.08C48.62 25.94 48.2 25.86 47.68 25.86C46.28 25.86 45.36 26.92 45.36 28.76V35.1H43.8V24.58H44.98L45.2 25.88C45.74 24.92 46.64 24.34 47.92 24.34C48.34 24.34 48.68 24.38 49 24.48Z" fill="white"/>
</g>
<defs>
<clipPath id="clip0_28_11891">
<rect width="60" height="60" fill="white" transform="translate(-2 -2)"/>
</clipPath>
</defs>
</svg>
